<?xml version="1.0" encoding="UTF-8" standalone="no"?>
<!DOCTYPE svg PUBLIC "-//W3C//DTD SVG 1.1//EN"
 "http://www.w3.org/Graphics/SVG/1.1/DTD/svg11.dtd">
<!-- Generated by graphviz version 2.43.0 (0)
 -->
<!-- Title: %3 Pages: 1 -->
<svg width="710pt" height="548pt"
 viewBox="0.00 0.00 710.00 548.00" xmlns="http://www.w3.org/2000/svg" xmlns:xlink="http://www.w3.org/1999/xlink">
<g id="graph0" class="graph" transform="scale(1 1) rotate(0) translate(4 544)">
<title>%3</title>
<polygon fill="white" stroke="transparent" points="-4,4 -4,-544 706,-544 706,4 -4,4"/>
<!-- A -->
<g id="node1" class="node">
<title>A</title>
<image xlink:href="icon_router.png" width="54px" height="36px" preserveAspectRatio="xMinYMin meet" x="648" y="-324"/>
<text text-anchor="middle" x="675" y="-302.3" font-family="Times,serif" font-size="14.00">A</text>
</g>
<!-- B -->
<g id="node2" class="node">
<title>B</title>
<image xlink:href="icon_router.png" width="54px" height="36px" preserveAspectRatio="xMinYMin meet" x="432" y="-540"/>
<text text-anchor="middle" x="459" y="-518.3" font-family="Times,serif" font-size="14.00">B</text>
</g>
<!-- A&#45;&#45;B -->
<g id="edge1" class="edge">
<title>A&#45;&#45;B</title>
<path fill="none" stroke="red" d="M656.96,-324.04C616.3,-364.7 517.9,-463.1 477.15,-503.85"/>
<text text-anchor="middle" x="560.55" y="-419.95" font-family="Times,serif" font-size="20.00">1</text>
</g>
<!-- C -->
<g id="node3" class="node">
<title>C</title>
<image xlink:href="icon_router.png" width="54px" height="36px" preserveAspectRatio="xMinYMin meet" x="432" y="-324"/>
<text text-anchor="middle" x="459" y="-302.3" font-family="Times,serif" font-size="14.00">C</text>
</g>
<!-- A&#45;&#45;C -->
<g id="edge2" class="edge">
<title>A&#45;&#45;C</title>
<path fill="none" stroke="red" d="M647.64,-306C606.09,-306 527.55,-306 486.13,-306"/>
<text text-anchor="middle" x="560.39" y="-312" font-family="Times,serif" font-size="20.00">4</text>
</g>
<!-- B&#45;&#45;C -->
<g id="edge3" class="edge">
<title>B&#45;&#45;C</title>
<path fill="none" stroke="red" d="M459,-503.96C459,-463.3 459,-364.9 459,-324.15"/>
<text text-anchor="middle" x="452.5" y="-420.05" font-family="Times,serif" font-size="20.00">2</text>
</g>
<!-- D -->
<g id="node4" class="node">
<title>D</title>
<image xlink:href="icon_router.png" width="54px" height="36px" preserveAspectRatio="xMinYMin meet" x="216" y="-252"/>
<text text-anchor="middle" x="243" y="-230.3" font-family="Times,serif" font-size="14.00">D</text>
</g>
<!-- B&#45;&#45;D -->
<g id="edge4" class="edge">
<title>B&#45;&#45;D</title>
<path fill="none" stroke="red" d="M445.49,-503.98C406.7,-452.26 295.29,-303.72 256.51,-252.01"/>
<text text-anchor="middle" x="344.5" y="-384" font-family="Times,serif" font-size="20.00">9</text>
</g>
<!-- G -->
<g id="node7" class="node">
<title>G</title>
<image xlink:href="icon_router.png" width="54px" height="36px" preserveAspectRatio="xMinYMin meet" x="72" y="-396"/>
<text text-anchor="middle" x="99" y="-374.3" font-family="Times,serif" font-size="14.00">G</text>
</g>
<!-- B&#45;&#45;G -->
<g id="edge5" class="edge">
<title>B&#45;&#45;G</title>
<path fill="none" stroke="red" d="M431.94,-511.18C365.23,-484.49 193.42,-415.77 126.37,-388.95"/>
<text text-anchor="middle" x="285.66" y="-456.06" font-family="Times,serif" font-size="20.00">4</text>
</g>
<!-- H -->
<g id="node8" class="node">
<title>H</title>
<image xlink:href="icon_router.png" width="54px" height="36px" preserveAspectRatio="xMinYMin meet" x="216" y="-468"/>
<text text-anchor="middle" x="243" y="-446.3" font-family="Times,serif" font-size="14.00">H</text>
</g>
<!-- B&#45;&#45;H -->
<g id="edge6" class="edge">
<title>B&#45;&#45;H</title>
<path fill="none" stroke="red" d="M431.64,-512.88C390.09,-499.03 311.55,-472.85 270.13,-459.04"/>
<text text-anchor="middle" x="344.39" y="-491.96" font-family="Times,serif" font-size="20.00">2</text>
</g>
<!-- C&#45;&#45;D -->
<g id="edge7" class="edge">
<title>C&#45;&#45;D</title>
<path fill="none" stroke="red" d="M431.64,-296.88C390.09,-283.03 311.55,-256.85 270.13,-243.04"/>
<text text-anchor="middle" x="344.39" y="-275.96" font-family="Times,serif" font-size="20.00">1</text>
</g>
<!-- E -->
<g id="node5" class="node">
<title>E</title>
<image xlink:href="icon_router.png" width="54px" height="36px" preserveAspectRatio="xMinYMin meet" x="288" y="-36"/>
<text text-anchor="middle" x="315" y="-14.3" font-family="Times,serif" font-size="14.00">E</text>
</g>
<!-- C&#45;&#45;E -->
<g id="edge8" class="edge">
<title>C&#45;&#45;E</title>
<path fill="none" stroke="red" d="M449.99,-287.98C424.13,-236.26 349.86,-87.72 324,-36.01"/>
<text text-anchor="middle" x="380.5" y="-168" font-family="Times,serif" font-size="20.00">3</text>
</g>
<!-- D&#45;&#45;E -->
<g id="edge9" class="edge">
<title>D&#45;&#45;E</title>
<path fill="none" stroke="red" d="M249.01,-215.96C262.57,-175.3 295.37,-76.9 308.95,-36.15"/>
<text text-anchor="middle" x="272.48" y="-132.05" font-family="Times,serif" font-size="20.00">1</text>
</g>
<!-- F -->
<g id="node6" class="node">
<title>F</title>
<image xlink:href="icon_router.png" width="54px" height="36px" preserveAspectRatio="xMinYMin meet" x="0" y="-108"/>
<text text-anchor="middle" x="27" y="-86.3" font-family="Times,serif" font-size="14.00">F</text>
</g>
<!-- D&#45;&#45;F -->
<g id="edge10" class="edge">
<title>D&#45;&#45;F</title>
<path fill="none" stroke="red" d="M215.64,-215.76C174.09,-188.06 95.55,-135.7 54.13,-108.09"/>
<text text-anchor="middle" x="128.39" y="-167.93" font-family="Times,serif" font-size="20.00">3</text>
</g>
<!-- D&#45;&#45;G -->
<g id="edge11" class="edge">
<title>D&#45;&#45;G</title>
<path fill="none" stroke="red" d="M224.76,-252.24C197.06,-279.94 144.7,-332.3 117.09,-359.91"/>
<text text-anchor="middle" x="164.43" y="-312.07" font-family="Times,serif" font-size="20.00">1</text>
</g>
<!-- E&#45;&#45;F -->
<g id="edge12" class="edge">
<title>E&#45;&#45;F</title>
<path fill="none" stroke="red" d="M287.91,-24.77C233.02,-38.5 109.24,-69.44 54.23,-83.19"/>
<text text-anchor="middle" x="164.57" y="-59.98" font-family="Times,serif" font-size="20.00">1</text>
</g>
<!-- F&#45;&#45;G -->
<g id="edge13" class="edge">
<title>F&#45;&#45;G</title>
<path fill="none" stroke="red" d="M31.5,-108.02C44.43,-159.74 81.57,-308.28 94.5,-359.99"/>
<text text-anchor="middle" x="56.5" y="-240" font-family="Times,serif" font-size="20.00">6</text>
</g>
<!-- G&#45;&#45;H -->
<g id="edge14" class="edge">
<title>G&#45;&#45;H</title>
<path fill="none" stroke="red" d="M126.09,-391.54C151.67,-404.33 189.84,-423.42 215.55,-436.27"/>
<text text-anchor="middle" x="157.82" y="-419.91" font-family="Times,serif" font-size="20.00">14</text>
</g>
</g>
</svg>
